<svg class="svg-icon" width="80" height="80" aria-hidden="true" role="img" focusable="false" xmlns="http://www.w3.org/2000/svg" xmlns:xlink="http://www.w3.org/1999/xlink" version="1.1" id="Capa_1" x="0px" y="0px" viewBox="0 0 383.099 383.099" style="enable-background:new 0 0 383.099 383.099;" xml:space="preserve"><path d="M117.36,41.497H53.302C23.861,41.497,0,65.365,0,94.806v64.071c0,29.447,23.88,53.308,53.332,53.308h31.999v-42.667    H53.332c-5.895,0-10.665-4.766-10.665-10.642V94.806c0-5.879,4.761-10.641,10.635-10.641h64.058    c5.844,0,10.635,4.812,10.635,10.751v193.269c0,5.934-4.808,10.751-10.665,10.751H85.331v42.667h31.999    c29.44,0,53.332-23.937,53.332-53.417V94.915C170.661,65.452,146.808,41.497,117.36,41.497z"></path><path d="M329.797,41.497h-64.058c-29.441,0-53.302,23.867-53.302,53.308v64.071c0,29.447,23.88,53.308,53.332,53.308h31.999    v-42.667H265.77c-5.895,0-10.665-4.766-10.665-10.642V94.806c0-5.879,4.761-10.641,10.635-10.641h64.058    c5.844,0,10.635,4.812,10.635,10.751v193.269c0,5.934-4.808,10.751-10.665,10.751h-31.999v42.667h31.999    c29.44,0,53.332-23.937,53.332-53.417V94.915C383.099,65.452,359.246,41.497,329.797,41.497z"></path></svg>