<svg xmlns="http://www.w3.org/2000/svg" id="Capa_1" height="512" viewBox="0 0 512 512" width="512"><g><path d="m509.387 418.964-19.917-27.191c-2.447-3.342-7.141-4.065-10.482-1.619-3.342 2.448-4.066 7.141-1.619 10.482l18.476 25.224-51.079 9.363c-6.788 1.244-12.535 5.455-15.769 11.551l-24.336 45.874-49.065-66.987c5.703-8.787 15.315-14.37 25.956-14.83 25.536-1.104 45.561-21.991 45.588-47.552.008-7.773 2.775-15.108 7.582-20.868l21.966 29.989c1.469 2.006 3.747 3.069 6.057 3.069 1.538 0 3.09-.472 4.426-1.45 3.342-2.448 4.066-7.141 1.619-10.482l-22.18-30.282c20.868-12.655 28.888-39.079 18.198-61.336-5.212-10.853-4.044-23.638 3.049-33.367 15.059-20.653 11.214-49.332-8.753-65.289-9.405-7.517-13.9-19.544-11.73-31.386 4.606-25.141-11.302-49.312-36.215-55.026-11.735-2.691-21.003-11.576-24.186-23.187-6.758-24.651-31.58-39.525-56.503-33.864-11.74 2.665-23.945-1.317-31.852-10.397-16.784-19.277-45.6-21.911-65.601-5.995-9.421 7.497-22.146 9.203-33.209 4.452-23.486-10.087-50.591.046-61.705 23.063-5.235 10.842-15.96 17.9-27.988 18.42-25.537 1.104-45.561 21.991-45.588 47.551-.013 12.04-6.613 23.052-17.224 28.74-22.529 12.074-31.508 39.58-20.442 62.621 5.212 10.853 4.044 23.638-3.049 33.367-15.059 20.654-11.214 49.333 8.753 65.29 9.405 7.517 13.9 19.543 11.73 31.385-1.855 10.124-.379 20.088 3.667 28.755l-11.592 15.824c-2.448 3.342-1.723 8.034 1.619 10.482 2.155 1.631 7.048 2.406 10.482-1.619l8.51-11.618c6.191 6.364 14.231 11.068 23.528 13.201 11.735 2.691 21.003 11.576 24.187 23.188 5.275 19.239 21.55 32.522 40.293 34.736l-37.65 51.403-24.336-45.874c-3.234-6.097-8.982-10.306-15.77-11.551l-51.078-9.363 11.635-15.885c2.447-3.342 1.723-8.034-1.619-10.482-3.341-2.447-8.034-1.722-10.482 1.619l-13.076 17.851c-2.758 3.767-3.374 8.604-1.648 12.941s5.497 7.429 10.088 8.269l53.476 9.803c2.249.412 4.152 1.807 5.224 3.826l25.479 48.03c2.187 4.123 6.273 6.785 10.929 7.122.333.024.663.036.992.036 4.286-.001 8.286-2.016 10.848-5.513l46.639-63.678c10.637-1.25 21.274 2.777 28.41 10.97 9.417 10.816 22.623 16.392 35.934 16.392 10.412 0 20.889-3.412 29.668-10.397 9.419-7.496 22.143-9.203 33.208-4.452 19.7 8.46 41.942 2.689 55.162-12.974l46.979 64.139c2.561 3.497 6.561 5.513 10.848 5.513.329 0 .661-.013.992-.036 4.656-.337 8.741-3 10.929-7.123l25.479-48.029c1.071-2.02 2.974-3.414 5.222-3.826l53.476-9.803c4.591-.841 8.363-3.932 10.088-8.268 1.727-4.338 1.111-9.175-1.648-12.942zm-211.61 19.566c-16.147-6.934-34.718-4.442-48.467 6.498-13.704 10.904-33.447 9.1-44.949-4.107-9.169-10.53-22.298-16.364-35.902-16.364-3.517 0-7.064.39-10.584 1.189-17.078 3.877-34.084-6.313-38.715-23.203-4.646-16.946-18.172-29.914-35.299-33.842-8.091-1.742-16.636-7.907-20.884-15.302-3.821-6.519-5.397-14.387-3.929-22.401 3.167-17.283-3.393-34.835-17.119-45.805-13.681-10.934-16.316-30.585-5.997-44.736 10.352-14.199 12.057-32.859 4.45-48.698-7.582-15.787-1.43-34.633 14.006-42.908 15.488-8.3 25.12-24.372 25.139-41.944.018-17.513 13.739-31.825 31.236-32.581 17.555-.76 33.207-11.06 40.848-26.884 7.615-15.771 26.185-22.714 42.279-15.802 16.146 6.935 34.717 4.443 48.467-6.498 13.705-10.902 33.448-9.099 44.949 4.107 11.538 13.253 29.349 19.066 46.486 15.175 17.079-3.876 34.084 6.314 38.715 23.204 4.646 16.945 18.172 29.913 35.299 33.841 17.07 3.915 27.969 20.476 24.813 37.703-3.166 17.284 3.394 34.835 17.12 45.806 13.681 10.934 16.315 30.584 5.997 44.735-10.352 14.199-12.057 32.859-4.45 48.698 7.582 15.787 1.43 34.634-14.006 42.908-14.421 7.399-25.377 24.698-25.139 41.944-.019 17.513-13.739 31.826-31.236 32.582-17.554.758-33.207 11.059-40.848 26.882-7.615 15.771-26.186 22.714-42.28 15.803z"></path><path d="m423.496 235.086c0-3.271-.09-6.577-.268-9.824-.226-4.136-3.759-7.295-7.898-7.08-4.136.227-7.306 3.763-7.079 7.898.163 2.976.245 6.006.245 9.006 0 89.692-72.97 162.663-162.663 162.663s-162.662-72.971-162.662-162.663 72.97-162.663 162.663-162.663c73.471 0 138.077 49.493 157.109 120.358 1.074 4 5.19 6.369 9.188 5.298 4-1.074 6.372-5.188 5.298-9.188-20.789-77.406-91.352-131.467-171.596-131.467-97.963 0-177.662 79.699-177.662 177.662s79.699 177.662 177.662 177.662 177.663-79.699 177.663-177.662z"></path><path d="m374.848 249.448v-9.487c0-8.166-4.891-15.197-11.889-18.36.52-1.71.805-3.522.805-5.4v-12.571c0-10.262-8.348-18.609-18.608-18.609-5.658 0-50.326 0-54.101 0-6.429 0-12.188-2.671-16.217-7.52-4.085-4.917-5.733-11.463-4.521-17.957l4.11-22.028c3.144-16.85-5.369-33.89-20.702-41.439-4.368-2.149-9.451-2.31-13.944-.439-4.507 1.876-7.987 5.61-9.547 10.247l-10.357 30.779c-1.321 3.926.791 8.179 4.716 9.5 3.927 1.32 8.18-.79 9.5-4.717l10.357-30.778c.235-.699.725-1.029 1.094-1.183.359-.149.921-.264 1.556.049 9.323 4.59 14.496 14.965 12.581 25.229l-4.11 22.028c-2.033 10.893.785 21.934 7.728 30.293 3.966 4.775 9.045 8.356 14.721 10.529-1.539 3.066-2.411 6.523-2.411 10.181v4.241c0 6.128 2.437 11.694 6.388 15.791-4.102 4.44-6.615 10.369-6.615 16.876 0 6.823 2.761 13.012 7.222 17.513-4.326 4.48-6.995 10.57-6.995 17.275 0 6.481 2.492 12.39 6.565 16.824-4.057 4.149-6.565 9.819-6.565 16.067 0 2.811.509 5.505 1.436 7.997h-49.379c-22.031 0-35.717-6.084-35.717-15.877v-91.212c12.495-7.847 23.397-21.282 30.326-37.594 1.619-3.812-.159-8.217-3.971-9.836-3.812-1.618-8.216.158-9.835 3.971-4.491 10.574-11.08 19.815-18.509 26.281-3.19-6.553-9.897-11.092-17.662-11.092h-15.599c-10.836 0-19.653 8.816-19.653 19.653v111.053c0 10.837 8.816 19.653 19.653 19.653h15.599c6.987 0 13.118-3.676 16.604-9.185 7.439 5.199 19.441 9.185 38.766 9.185h109.679c9.716 0 17.62-7.904 17.62-17.62v-10.753c0-1.947-.33-3.815-.916-5.568 5.811-3.539 9.713-9.916 9.713-17.204v-9.487c0-2.373-.434-4.641-1.19-6.757 7.207-3.07 12.274-10.224 12.274-18.542zm-197.897 66.279c0 2.565-2.087 4.653-4.653 4.653h-15.599c-2.565 0-4.653-2.088-4.653-4.653v-111.053c0-2.565 2.087-4.653 4.653-4.653h15.599c2.565 0 4.653 2.088 4.653 4.653zm123.326-61.129c-5.456 0-9.894-4.438-9.894-9.894s4.438-9.894 9.894-9.894c6.829 0 49.329-.001 54.421 0 2.84 0 5.15 2.311 5.15 5.151v9.487c0 2.84-2.311 5.15-5.15 5.15zm48.487 20.151v9.487c0 2.84-2.311 5.15-5.15 5.15h-43.11c-5.456 0-9.894-4.438-9.894-9.894s4.438-9.894 9.894-9.894h43.11c2.839 0 5.15 2.311 5.15 5.151zm-3.608-74.728c1.99 0 3.608 1.619 3.608 3.609v12.571c0 1.989-1.619 3.608-3.608 3.608h-46.772c-4.287 0-7.774-3.487-7.774-7.773v-4.241c0-4.287 3.487-7.774 7.774-7.774zm-5.189 117.739c0 1.444-1.175 2.62-2.62 2.62h-38.741c-4.409 0-7.996-3.588-7.996-7.997s3.587-7.997 7.996-7.997c1.551-.008 36.717.005 38.741 0 1.445 0 2.62 1.176 2.62 2.621z"></path></g></svg>